<?xml version="1.0" encoding="utf-8"?>
<!-- Generator: Adobe Illustrator 28.1.0, SVG Export Plug-In . SVG Version: 6.00 Build 0)  -->
<svg version="1.1" id="Слой_1" xmlns="http://www.w3.org/2000/svg" xmlns:xlink="http://www.w3.org/1999/xlink" x="0px" y="0px"
	 viewBox="0 0 252.29 272.16" style="enable-background:new 0 0 252.29 272.16;" xml:space="preserve">
<style type="text/css">
	.st0{fill:none;}
	.st1{fill:#1C1C1D;}
	.st2{fill:#FDF9F8;}
	.st3{fill:#E73B23;}
</style>
<path class="st1" d="M239.13,134.68l-0.01-0.11c-0.18-1.57-0.12-3.33-0.06-5.19c0.11-3.22,0.23-6.87-0.9-10.5v0
	c-0.23-0.73-0.19-1.58-0.16-2.49c0.06-1.45,0.12-3.09-0.89-4.61c-0.31-5.82-2.04-11.35-3.72-16.7l-0.33-1.07
	c-0.23-0.75-0.46-1.51-0.69-2.27c-0.97-3.24-1.98-6.6-3.59-9.62c-0.9-1.69-1.78-3.4-2.67-5.1c-1.58-3.06-3.22-6.22-4.96-9.28
	c-4.67-8.19-10.62-15.15-16.83-22.15c-2.88-3.25-6.36-5.94-9.72-8.54c-0.97-0.75-1.94-1.5-2.9-2.27
	c-6.21-4.96-12.97-9.14-20.1-12.43c-1.54-0.71-3.13-1.35-4.67-1.97c-0.87-0.35-1.74-0.7-2.6-1.06c-3.43-1.44-7.02-2.53-10.49-3.59
	l-1.89-0.58c-1.34-0.41-2.64-0.5-3.89-0.59c-1.12-0.08-2.18-0.15-3.17-0.45c-3.94-1.19-7.82-1.78-11.52-1.75
	c-1.9,0.01-3.84-0.05-5.72-0.12c-5.1-0.17-10.38-0.35-15.6,0.97c-1.22,0.31-2.52,0.38-3.9,0.46c-1.74,0.1-3.53,0.2-5.2,0.81
	c-0.92,0.34-1.86,0.45-2.85,0.57c-1.02,0.12-2.06,0.25-3.12,0.63c-7.67,2.75-16.37,5.87-24.3,10.6
	c-8.28,4.93-15.62,11.02-21.09,15.77c-2.51,2.18-4.52,4.82-6.46,7.37c-1.15,1.52-2.35,3.08-3.62,4.51
	c-5.12,5.75-8.84,12.36-12.12,18.2c-3.11,5.54-5.54,10.97-7.42,16.61c-0.42,1.25-0.81,2.52-1.2,3.78c-0.73,2.37-1.49,4.82-2.43,7.13
	c-0.96,2.35-1.42,4.8-1.88,7.17c-0.27,1.41-0.55,2.87-0.92,4.26c-0.91,3.36-1.21,6.88-1.51,10.3c-0.16,1.79-0.32,3.65-0.56,5.44
	c-0.54,3.9-0.36,7.92-0.2,11.81c0.03,0.78,0.07,1.55,0.09,2.32l0.06,1.64c0.14,4.15,0.28,8.43,1.1,12.55
	c0.16,0.8,0.21,1.68,0.26,2.54c0.08,1.44,0.17,2.92,0.77,4.23c0.98,2.13,1.5,4.36,2.06,6.71c0.4,1.72,0.82,3.49,1.43,5.22
	c0.67,1.89,1.31,3.79,1.95,5.69c0.72,2.15,1.47,4.37,2.26,6.56c2.67,7.42,6.71,14.18,10.28,19.93c2.8,4.5,5.91,8.96,9.25,13.24
	c1,1.28,2.16,2.42,3.29,3.52c1.67,1.63,3.26,3.18,4.33,5.15l0.19,0.34l0.37,0.13c1.61,0.56,2.75,1.79,3.96,3.08
	c0.52,0.55,1.05,1.13,1.63,1.66c3.74,3.41,8.06,6.53,13.6,9.82c0.86,0.51,1.71,1.03,2.57,1.54c4.67,2.82,9.5,5.74,14.88,7.58
	c0.82,0.28,1.62,0.7,2.47,1.15c1.27,0.67,2.59,1.36,4.04,1.59c1.83,0.29,3.59,0.86,5.46,1.46c3.03,0.97,6.15,1.98,9.57,1.69
	c1.25,1.04,2.7,0.99,3.88,0.95c0.5-0.02,0.98-0.03,1.41,0.02c0.68,0.09,1.35,0.25,2.07,0.41c1,0.23,2.03,0.47,3.1,0.53
	c2.73,0.14,5.5,0.1,8.17,0.05l0.88-0.01c0.85-0.02,1.75,0.02,2.62,0.05c0.75,0.03,1.51,0.05,2.27,0.05c1.61,0,3.21-0.12,4.71-0.63
	c0.96-0.33,2.02-0.3,3.14-0.27c1.67,0.05,3.55,0.1,5.22-1.17c3.52,0.15,6.74-0.9,9.86-1.92c1.24-0.41,2.53-0.83,3.8-1.15
	c4.5-1.16,9.07-2.87,13.59-5.07c1.34-0.65,2.62-1.43,3.85-2.19c0.99-0.6,2.01-1.23,3.03-1.77c5.83-3.07,10.08-6.01,13.37-9.24
	c1.49-1.47,3.12-2.86,4.7-4.21c2.9-2.48,5.91-5.05,8.34-8.3c1.15-1.54,2.33-3.06,3.5-4.58c3.33-4.29,6.77-8.74,9.59-13.62
	c4.78-8.27,8.23-15.73,11.93-25.72c1.91-5.15,3.02-10.51,4.11-15.69c0.51-2.46,1.05-5,1.65-7.48c0.83-3.38,0.92-6.95,1.01-10.39
	c0.03-1.28,0.07-2.55,0.14-3.82c0.09-1.58,0.07-3.17,0.05-5.02C239.14,136.84,239.13,135.82,239.13,134.68z M176.47,236.13
	c0.23-1.74,0.46-3.5,0.72-5.27c0.3-1.99-0.12-3.97-1.19-5.71c-1.01-1.64-0.77-3.09-0.29-5.1c0.74-3.1,2.05-5.99,4.24-9.38
	c3.12-4.81,2.84-9.29-0.9-14.5c-0.93-1.3-2.06-1.19-2.74-1.13c-0.19,0.02-0.38,0.04-0.51,0.02c-0.33-0.05-0.66-0.05-0.94-0.04
	c-0.25,0-0.62,0-0.68,0c0,0-0.08-0.16-0.03-0.7c0.21-2.06,0.58-2.19,1.82-2.31c1.35-0.13,2.48,0.61,3.6,1.44
	c1.21,0.91,2.44,1.94,2.98,3.57c0.46,1.41,1.54,2.59,2.49,3.63l0.48,0.53c0.63,0.71,2.21,0.89,2.96,0.34l0.19-0.14
	c0.69-0.49,2.29-1.64,1.21-3.51l-0.46-0.8c-2.78-4.82-5.65-9.81-12.21-11.03c-0.01,0-0.02,0-0.03-0.01c0.03-0.05,0.07-0.1,0.12-0.16
	c0.96-1.13,2.61-1.24,4.54-0.32c1.01,0.49,1.87,1.03,2.53,1.61c2.66,2.33,5.55,5.23,6.79,9.07c0.67,2.08,2.24,1.87,2.91,1.78
	c0.11-0.02,0.23-0.03,0.34-0.04c0.64-0.03,1.13-0.26,1.46-0.66c0.52-0.64,0.4-1.45,0.32-1.99c-0.02-0.11-0.04-0.22-0.04-0.32
	c-0.05-0.77-0.28-1.58-0.74-2.57c-2.58-5.58-5.71-11.11-12.88-12.35c0.34-0.17,0.65-0.39,0.92-0.59c0.83-0.61,0.83-0.61,1.27-0.03
	l0.24,0.31l0.38,0.07c4.33,0.77,7.31,3.38,9.96,8.74c0.24,0.49,0.54,0.95,0.82,1.39c0.45,0.71,0.88,1.38,1,2.02
	c0.4,2.27,2.07,2.1,2.79,2.03c0.13-0.01,0.25-0.03,0.37-0.03c0.9-0.01,1.38-0.39,1.63-0.71c0.6-0.77,0.36-1.77,0.22-2.35l-0.14-0.59
	c-0.85-3.6-1.73-7.32-4.68-9.97c-0.72-0.65-1.26-1.51-1.83-2.43c-1.03-1.64-2.19-3.5-4.63-4.23c-0.19-0.26-0.49-1.13-0.59-2.06
	c-0.08-0.75-0.05-1.54,0.01-2.35c0.57,0.44,1.11,0.87,1.6,1.35c5.56,5.39,9.4,10.83,11.73,16.64c1.45,3.61,2.63,7.26,3.51,10.84
	c0.16,0.67-0.48,1.92-0.95,2.84l-0.19,0.38c-2.34,4.65-4.42,8.36-6.54,11.66c-0.44,0.68-0.9,1.35-1.36,2.02
	c-1.77,2.56-3.59,5.21-4.18,8.57l-0.07,0.43c-0.21,1.27-0.45,2.7-1.11,3.36c-2.47,2.5-5.31,4.71-8,6.73
	c-2.11,1.58-4.52,3.15-7.36,4.79c-0.27,0.16-0.73,0.42-1.1,0.61c-0.02-0.38-0.02-0.87-0.02-1.27L176.47,236.13z M175.17,157.96
	c-0.03-0.4-0.2-0.71-0.33-0.93c-0.03-0.06-0.07-0.12-0.09-0.18c-0.26-0.71-0.52-1.45-0.5-1.61c0.12-0.17,0.85-0.55,1.55-0.91
	c0.51-0.26,1.06-0.46,1.58-0.65c0.03-0.01,0.06-0.02,0.09-0.03c0.95,2.13,1.88,4.31,2.86,6.61l0.02,0.06
	c-0.55,0.25-1.06,0.6-1.56,0.93c-1.11,0.75-1.69,1.07-2.21,0.79C176.05,161.73,175.37,160.79,175.17,157.96z M161.26,189.39
	c0.37,0.19,0.74,0.38,1.1,0.56c2.01,1.02,3.91,1.98,5.73,3.01c0.04,0.22,0.06,0.61,0.08,0.82l0.02,0.27c0.27,3.97,1.12,6,5.21,6.84
	c0.97,0.2,1.26,0.71,1.71,1.49c0.24,0.42,0.52,0.89,0.92,1.31c0.2,0.21,0.24,0.32,0.25,0.32c-0.03,0.09-0.23,0.32-0.35,0.45
	c-0.27,0.3-0.58,0.65-0.74,1.12c-0.46,1.4-1.11,2.75-1.86,3.91c-1.36,2.08-2.14,4.36-2.9,6.57c-0.26,0.75-0.52,1.51-0.8,2.26
	c-2.48-4.51-3.73-9.28-4.7-13.77c-0.19-0.89-0.38-1.79-0.57-2.69c-0.85-4.06-1.73-8.26-3.16-12.2
	C161.2,189.61,161.22,189.5,161.26,189.39z M212.37,201.67c0.61-2.26,0.88-4.26,0.18-6.64c-0.08-0.26-0.15-0.52-0.25-0.79
	l-0.04-0.11c-0.52-1.43-0.89-2.9-1.29-4.45c-0.44-1.73-0.89-3.52-1.57-5.25c-3.18-8.14-8.97-14.17-15.13-20.14
	c-0.75-0.72-1.88-1.59-3.04-1.65c-1.46-0.07-2.32-1-3.32-2.09c-0.7-0.75-1.42-1.54-2.37-2.06c-0.11-0.09-0.31-0.49-0.34-0.84
	c-0.28-2.89-1.48-5.44-2.65-7.9c-0.25-0.52-0.49-1.03-0.72-1.54c-1.79-3.97-4.28-8.3-9.07-10.38c-1.76-0.76-3.09-0.84-4.07-0.23
	c-0.93,0.58-1.42,1.68-1.5,3.36c-0.03,0.53-0.02,1.05-0.01,1.58c0.03,1.51,0.06,2.81-0.77,4.02c-0.63,0.93-0.62,2.7,0.02,3.57
	c1.43,1.93,1.86,4.24,2.31,6.68c0.46,2.48,0.94,5.05,2.52,7.29c0.09,0.15,0.11,0.64,0.06,0.77c-2.21,3.07-1.02,5.79,0.03,8.18
	c0.23,0.53,0.47,1.07,0.66,1.61c0.14,0.38,0.26,0.78,0.39,1.17c0.25,0.8,0.52,1.62,0.9,2.41c0.94,1.91,0.89,2.43-0.28,3.09
	c-1.96,1.1-1.91,3.05-1.87,4.34c0.01,0.35-0.08,0.75-0.18,1.17c-0.52-0.06-1.06-0.12-1.31-0.31c-1.5-1.08-3.15-1.78-4.73-2.45
	c-0.86-0.36-1.66-0.7-2.45-1.1c-2.45-1.24-5.01-1.96-7.48-2.65c-1.34-0.38-2.73-0.76-4.05-1.23c-0.64-0.22-1.28-0.46-1.92-0.69
	c-1.25-0.45-2.5-0.9-3.77-1.31c-0.57-0.19-1.2-0.29-1.8-0.39c-0.76-0.13-1.79-0.3-2.02-0.61c-0.66-0.9-0.85-2.36-1.03-3.76
	c-0.05-0.4-0.1-0.79-0.16-1.17c-0.1-0.61-0.07-1.26-0.05-1.96c0.02-0.47,0.03-0.94,0.02-1.41c-0.04-1.06,0.2-1.54,1.76-1.8
	c3.05-0.5,6.15-1.93,9.21-4.24c1.86-1.41,3.29-3.33,4.67-5.18c0.29-0.4,0.59-0.79,0.88-1.18c1.12-1.47,2.12-3.04,3.08-4.56
	c0.29-0.46,0.58-0.91,0.87-1.37c0.77-1.19,0.65-2.11,0.42-2.68c-0.25-0.6-0.88-1.4-2.46-1.75c-3.12-0.69-4.31,1.44-5.18,3
	l-0.12,0.22c-2.33,4.14-5.03,8.33-10.04,9.96c-0.31,0.1-0.63,0.22-0.94,0.35c-0.53,0.21-1.04,0.41-1.51,0.47
	c-0.52,0.07-1.08,0.05-1.67,0.03c-0.58-0.02-1.18-0.04-1.79,0.02c-5.54,0.55-10.8-1.13-16.55-5.27c-0.85-0.62-1.99-1.36-3.22-1.65
	l-0.17-0.04c-0.55-0.14-1.47-0.37-2.27,0.16c-0.53,0.34-0.86,0.93-1,1.73c-0.03,0.16-0.09,0.33-0.17,0.52
	c-0.25,0.65-0.71,1.87,0.77,3.05c4.61,3.69,10.95,7.98,19.14,8.44c0.14,0.01,0.23,0.02,0.28,0.04c0.02,0.1,0.02,0.28,0.02,0.53
	c-0.01,1.08,0.01,2.16,0.02,3.24c0.03,1.87,0.06,3.81-0.07,5.68c-0.18,2.42,0.39,4.32,1.69,5.65c1.35,1.38,3.45,2.05,6.08,1.93
	c1.06-0.05,2.36,0.53,3.48,1.08c0.26,0.13,0.67,0.72,0.74,1.15c0.1,0.65,0.2,1.3,0.31,1.95c0.38,2.29,0.77,4.66,0.65,6.91
	c-0.52,10.06-4.79,15.48-14.74,18.69c-1.61,0.52-3.49,0.39-5.47,0.25c-0.91-0.06-1.85-0.13-2.78-0.13c-0.13,0-0.27,0-0.4,0
	c-6.33,0.13-12.36-2.09-18.43-6.83c-7.82-6.11-11.48-11.82-15.16-19.62c-0.4-0.85-0.83-1.68-1.27-2.51
	c-0.04-0.07-0.07-0.14-0.11-0.21c0.08-0.04,0.16-0.08,0.24-0.12c0.85-0.41,1.69-0.81,2.55-1.18c4.71-2.02,8-5.25,10.07-9.86
	c0.36-0.81,0.36-1.65,0.35-2.39c-0.01-1.19,0.05-1.64,0.73-2l0.47-0.25l0.36-3.6c0.24-2.34,0.47-4.67,0.68-7.01
	c0.11-1.26,0.12-2.51,0.12-3.72c0.01-2.3,0.02-4.47,0.7-6.69c1.15-3.78-0.07-7.74-3.52-11.46c-0.93-1-1.29-1.87-1.34-3.23
	c-0.08-2.07-1.01-3.71-2.57-4.51c-1.64-0.84-3.75-0.59-5.63,0.67c-0.78,0.52-1.35,0.74-1.71,0.65c-0.34-0.09-0.72-0.51-1.12-1.26
	c-1.89-3.53-3.53-7.04-2.94-11.12c0.24-1.63,2-4.32,3.37-5.13c0.85-0.5,1.3-0.49,2.55,0.08c2.46,1.12,4.17,2.99,5.06,5.57
	c0.34,0.98,0.89,1.6,1.64,1.84c0.69,0.22,1.36,0.05,1.79-0.11c1.62-0.56,4.62-1.61,5.3-4.92c0.08-0.4,0.29-1.75-0.43-2.54
	c-0.22-0.24-0.24-0.35-0.24-0.35c0.02-0.12,0.3-0.47,0.49-0.7l0.73-0.87c2.04-2.43,4.16-4.95,4.82-8.51
	c0.22-1.19,1.8-1.63,3.31-1.92c7.2-1.34,13.04-5.27,18.69-9.08c5.96-4.01,8.98-9.53,11.16-14.4c0.33-0.73,0.5-1.49,0.66-2.22
	l0.04-0.2c0.01-0.04,0.02-0.08,0.03-0.12c0.06,0.03,0.15,0.07,0.26,0.14c0.25,0.15,0.5,0.29,0.76,0.43c0.68,0.38,1.33,0.74,1.79,1.2
	c0.61,0.6,1.22,1.2,1.83,1.8c4.67,4.57,9.08,8.88,10.76,15.39c0.33,1.3,0.59,2.66,0.85,3.97c0.18,0.95,0.37,1.91,0.57,2.84
	c0.03,0.13,0.05,0.26,0.08,0.38c-0.06-0.12-0.14-0.23-0.23-0.32c-0.18-0.2-0.36-0.41-0.54-0.62c-1.08-1.27-2.56-3-4.97-2.25
	c-0.29,0-0.56-0.02-0.82-0.03c-0.68-0.03-1.32-0.06-1.97,0.07c-1.11,0.22-2.12,0.95-2.76,1.99c-0.67,1.08-0.86,2.36-0.54,3.51
	c0.25,0.88,1.41,1.32,1.42,1.32c0.52,0.19,0.89,0.06,1.11-0.09c1.97-1.32,3.85-0.95,6.23,0.08c0.22,0.09,0.47,0.14,0.74,0.14
	c0.84,0,1.8-0.42,2.18-1.03c0.21-0.34,0.36-0.85,0.39-1.39c0.22,1.61,0.14,3.14-0.89,4.49c-0.53,0.7-0.44,1.59-0.35,2.37
	c0.04,0.37,0.08,0.76,0.04,1.03c-0.02,0.15-0.16,0.41-0.26,0.52c-0.39,0.11-0.69,0.26-0.96,0.43c-0.2-0.55-0.5-1.08-0.9-1.56
	c-0.99-1.18-2.45-1.91-3.9-1.94c-1.27-0.03-2.39,0.44-3.12,1.31c-0.79,0.94-1.08,2.29-0.82,3.72c0,1.67,0.07,5.77,3.39,6.05
	c0.12,0.01,0.24,0.01,0.35,0.01c2.51,0,4.36-2.28,5.03-4.39c0.01,0.01,0.02,0.02,0.02,0.02c1.65,1.75,1.99,4.01,2.22,6.38
	c0.71,7.43-1.48,14.36-3.46,19.55c-0.03,0.05-0.07,0.1-0.1,0.15c-0.13,0.18-0.31,0.42-0.4,0.75c-0.27,0.97-0.2,1.74,0.2,2.34
	c0.42,0.62,1.14,0.99,2.22,1.12c2.1,0.26,3-0.7,3.78-2.33c1.47-3.06,3.22-7.17,3.76-11.79c0.07-0.63,0.24-1.27,0.42-1.95
	c0.23-0.86,0.47-1.76,0.51-2.7c0.18-3.6-0.43-7.25-1.87-11.16c0.36-1.04-0.26-1.89-0.65-2.42c-0.5-0.69-0.46-0.75-0.28-1.02
	c0.51-0.74,0.59-1.64,0.67-2.43c0.05-0.52,0.1-1.02,0.25-1.39c0.66-1.58,0.91-3.23,1.16-4.82c0.23-1.52,0.46-2.96,1.01-4.27
	c1.38-3.26,1.01-6.58,0.69-9.51l-0.07-0.68c-0.69-6.48-3.04-12.42-6.97-17.65c-4.09-5.45-9.54-9.54-17.15-12.86
	c-4.84-2.12-9.26-3.87-14.28-3.91c-0.81-0.01-1.61-0.28-2.47-0.57c-1.2-0.4-2.54-0.86-4.08-0.6c-0.28-0.23-0.76-0.83-0.86-1.2
	c-1.99-6.78-7.27-10.04-12.68-12.56c-2.24-1.04-4.53-1.05-6.74-1.06c-0.73,0-1.47,0-2.2-0.05c-11.37-0.65-20.47,4.14-27.84,14.65
	c-4,5.71-5.5,12.41-4.33,19.38c0.67,3.96,2.27,7.31,4.64,9.69c1.79,1.79,2.59,3.34,1.37,5.95c-2.91,6.2-2.68,13.09-2,19.61
	c0.45,4.29,1.23,8.82,3.86,12.86c1.23,1.89,1.98,4.17,2.17,6.6c0.15,1.9,1.37,3.59,2.54,5.23c0.42,0.58,0.81,1.12,1.15,1.67
	c0.45,0.72,1.09,1.27,1.66,1.76l0.27,0.24c0.2,0.17,0.61,0.53,0.65,0.65c0,0.01,0,0.23-0.51,0.93c-2.26,3.09-4.26,6.92-2.03,11.92
	c2.68,6.01,7.42,8.66,13.04,7.27c0.05,1.58,0.09,3.2-0.03,4.76c-0.06,0.69-0.01,1.36,0.03,2c0.08,1.24,0.15,2.3-0.45,3.32
	c-0.56,0.94-0.71,1.95-0.85,2.92c-0.11,0.76-0.22,1.47-0.51,2.12c-1.18,2.59-3.97,5.4-6.35,6.4c-6.01,2.53-12.29,4.65-18.36,6.7
	c-1.4,0.47-2.79,0.94-4.19,1.42c-6.31,2.16-11.79,6.12-15.41,11.17c-2.55,3.54-4.49,7.55-5.78,11.92c-0.08,0.27-0.08,0.53-0.08,0.72
	c0,0.01,0,0.02,0,0.04c-0.16,0.19-0.32,0.36-0.48,0.52c-0.1-0.11-0.19-0.22-0.28-0.33c-4.95-6.12-8.38-13.33-11.71-20.29
	c-0.48-1-0.95-1.99-1.43-2.99c-2.72-5.63-4.82-11.9-6.25-18.64c-0.25-1.19-0.46-2.42-0.67-3.61c-0.49-2.9-1.01-5.89-2.17-8.73
	c0-0.02,0.01-0.04,0.01-0.06c0.45-2.72,0-5.33-0.44-7.86c-0.35-2-0.68-3.89-0.59-5.82c0.08-1.77,0.01-3.56-0.07-5.3
	c-0.12-2.8-0.23-5.45,0.26-8c0.53-2.78,0.91-5.62,1.28-8.37c0.37-2.78,0.76-5.65,1.3-8.44c0.34-1.77,0.88-3.55,1.41-5.27
	c0.85-2.81,1.74-5.71,1.85-8.79c1.42-2.25,2.3-4.73,3.14-7.12c0.74-2.1,1.51-4.28,2.64-6.23c1.22-2.11,2.31-4.31,3.36-6.45
	c1.9-3.84,3.86-7.82,6.6-11.22c0.63-0.78,1.14-1.64,1.63-2.47c0.55-0.93,1.07-1.81,1.73-2.55c1.03-1.15,2.06-2.31,3.08-3.47
	c3.48-3.94,7.07-8.01,11.01-11.51c8.03-7.13,15.74-12.26,23.59-15.68c0.89-0.39,1.77-0.78,2.66-1.18c4.9-2.2,9.96-4.47,15.42-4.97
	l0.41-0.04l0.26-0.31c0.68-0.8,1.49-0.83,2.87-0.8c0.97,0.01,2.08,0.03,3.14-0.44c0.74-0.33,1.74-0.3,2.81-0.26
	c1.12,0.04,2.26,0.08,3.36-0.28c3.48-1.14,6.98-1.01,10.68-0.87c1.51,0.06,3.08,0.12,4.63,0.08c2.37-0.06,4.84,0.29,7.23,0.63
	c0.73,0.1,1.46,0.21,2.19,0.3c1.69,0.21,3.41,0.6,5.07,0.97c1.33,0.3,2.71,0.61,4.09,0.83c1.96,0.32,3.86,0.96,5.7,1.57
	c1.02,0.34,2.08,0.7,3.15,1c5.76,1.62,11.17,4.49,16.39,7.27l1.92,1.02c2.98,1.57,5.73,3.61,8.39,5.58
	c1.29,0.95,2.61,1.94,3.96,2.87c4.9,3.38,9.03,7.81,13.01,12.09l0.83,0.89c4.42,4.74,8.44,10.33,12.29,17.1
	c0.5,0.88,1.03,1.74,1.56,2.61c0.91,1.48,1.86,3.01,2.59,4.58c1.6,3.44,3.44,7.53,4.89,11.83l0.58,1.72
	c1.12,3.29,2.28,6.7,3.12,10.16c0.81,3.33,1.39,6.76,1.96,10.08c0.34,2,0.69,4.07,1.09,6.1c0.63,3.19,0.61,6.33,0.59,9.37
	c-0.01,2.13-0.02,4.14,0.19,6.01c0,1.22,0.01,2.32,0.02,3.34c0.02,1.95,0.04,3.63-0.03,5.26l-0.02,0.36
	c-0.06,1.04-0.09,2.08-0.13,3.12c-0.12,3.25-0.24,6.62-0.95,9.74c-0.38,1.68-0.71,3.4-1.03,5.06c-0.54,2.85-1.1,5.79-1.95,8.58
	c-0.4,1.31-0.75,2.65-1.1,3.96c-0.79,2.97-1.6,6.04-2.91,8.66c-0.99,1.98-1.92,4.02-2.81,5.99c-2.1,4.63-4.28,9.42-7.36,13.64
	c-0.57,0.79-1.13,1.59-1.68,2.41C211.65,203.96,212.05,202.84,212.37,201.67z M90.26,142.64c0.05,0.6,0.1,1.18,0.03,1.69
	c-0.12,0.94,0.09,1.78,0.6,2.43c0.56,0.71,1.42,1.15,2.51,1.27l0.11,0.01c1.33,0.15,3.55,0.41,4.2-2.61l0.12-0.54
	c0.4-1.76,0.8-3.57-0.38-5.52c0,0,0-0.01,0-0.01c0.1,0.04,0.19,0.07,0.22,0.1c2.07,2.41,2.1,4.76,0.08,7.21
	c-1.17,1.42-2.06,1.84-3.35,1.55c-0.32-0.06-0.66-0.08-1.01-0.11c-0.55-0.04-1.11-0.09-1.38-0.27c-1.28-0.89-2.26-1.88-2.84-2.86
	c-0.44-0.74,0.15-3.16,1.1-4.78C90.13,141.07,90.2,141.9,90.26,142.64z M112.43,53.24c-8.92,1.92-15.46,5.26-20.59,10.48
	c-0.66,0.67-1.32,1.33-1.99,1.98c-2.41,2.37-4.89,4.8-6.77,7.77c0.77-1.8,1.97-3.64,3.66-5.63c4.89-5.76,10.07-9.74,15.84-12.18
	C105.76,54.3,109.02,53.5,112.43,53.24z M50.77,213.21c1.16-1.45,1.62-3.35,2.06-5.18c0.13-0.56,0.27-1.11,0.42-1.64
	c1.52-5.3,4.93-9.47,10.74-13.14c1.66-1.05,3.51-1.92,5.3-2.77l0.74-0.35c0.3-0.14,0.58-0.21,0.84-0.21c0.51,0,0.94,0.27,1.19,0.79
	c2.32,4.63,4.06,9.06,5.32,13.54c0.38,1.34,0.62,2.82,0.74,4.51c0.11,1.55,0.11,3.15,0.11,4.69c0,1.04,0,2.08,0.03,3.09
	c0,0.56-0.01,1.12-0.02,1.69c-0.01,0.81-0.03,1.63-0.02,2.44c0.01,0.47,0.02,0.95,0.06,1.42c0.22,3.29-0.78,6.31-1.83,9.5
	c-0.52,1.56-1.05,3.17-1.42,4.82c-0.02,0.09-0.09,0.22-0.14,0.3c-0.06-0.03-0.16-0.09-0.31-0.22c-0.77-0.7-1.7-1.17-2.58-1.61
	c-0.8-0.4-1.56-0.79-2.14-1.31c-2.06-1.87-4.27-3.62-6.4-5.32c-3.59-2.86-7.31-5.81-10.35-9.34c-0.28-0.33-0.61-0.6-0.93-0.87
	c-0.27-0.23-0.77-0.65-0.81-0.82c-0.11-0.6-0.38-1.12-0.62-1.58C50.25,214.65,50,214.17,50.77,213.21z"/>
<path class="st1" d="M147.53,136.12c-1.98-0.06-3.99-0.05-5.93-0.03c-0.85,0.01-1.7,0.01-2.55,0.01l-2.4,0
	c-2.02,0-4.04-0.01-6.06,0.01c-0.94,0.01-1.83,0.61-2.29,1.52c-0.42,0.84-0.36,1.76,0.16,2.44c0.35,0.46,0.69,0.94,1.03,1.42
	c1.29,1.81,2.63,3.68,4.43,4.99c1.44,1.05,3.88,2.82,6.65,2.82c0.7,0,1.42-0.11,2.15-0.38c2.55-0.93,6.04-2.2,6.65-6.32
	c0.04-0.27,0.25-0.62,0.48-0.98c0.16-0.26,0.32-0.52,0.45-0.79c0.67-1.38,0.75-2.52,0.23-3.37
	C150.03,136.62,149.02,136.17,147.53,136.12z M140.7,142.08c0.29-0.01,0.56-0.03,0.77,0.01c0.23,0.04,0.49,0.08,0.76,0.12
	c0.2,0.03,0.46,0.06,0.69,0.11c-0.05,0.01-0.1,0.02-0.14,0.03c-0.44,0.09-0.93,0.19-1.34,0.5v0c-0.77,0.58-1.28,0.34-2.52-0.51
	c-0.12-0.08-0.25-0.17-0.37-0.25c0.27-0.01,0.56,0,0.84,0l0.82,0C140.37,142.09,140.53,142.08,140.7,142.08z"/>
<path class="st1" d="M150.92,118.28c-0.95-2.11-1.85-4.11-1.8-6.38c0.01-0.5-0.25-1.01-0.79-1.53c-0.55-0.53-1.5-1.13-2.29-1.09
	c-1.23,0.07-2.4,1.57-2.7,2.61c-0.22,0.77-0.66,2.72,0.07,4.16c0.67,1.31,1.11,2.7,1.58,4.16c0.42,1.33,0.86,2.7,1.48,4.01
	c0.24,0.5,0.39,0.87,0.47,1.11c-0.43,0.36-1.03,0.65-1.6,0.75c-0.39,0.07-0.85,0.05-1.34,0.02c-0.69-0.04-1.47-0.09-2.23,0.15
	c-1.11,0.36-2.43,1.75-2.4,2.94c0.03,1.23,1.45,2.41,2.47,2.79c0.48,0.18,0.98,0.23,1.53,0.23c0.33,0,0.68-0.02,1.06-0.04
	c0.49-0.03,1.07-0.05,1.82-0.06c0.04,0,0.11,0,0.19,0c0.61,0.02,1.88,0.06,2.98-0.46c2.98-1.41,3.96-5.66,3.18-8.95
	C152.2,121.14,151.55,119.68,150.92,118.28z"/>
<path class="st1" d="M132.23,111.76l0-0.19l-0.07-0.17c-0.05-0.13-0.1-0.31-0.17-0.52c-0.24-0.78-0.61-1.95-1.25-3.03
	c-0.66-1.11-1.96-1.83-3.39-1.88c-1.33-0.04-2.56,0.53-3.24,1.52c-0.98,1.45-1.44,1.85-2.6,1.7c-1.01-0.14-2.09,1.1-2.2,1.91
	l-0.04,0.22c-0.1,0.59-0.26,1.48,0.32,2.16c0.24,0.28,0.7,0.63,1.54,0.6c1.43-0.02,1.95,0.39,2.35,1.9
	c0.36,1.36,1.68,2.19,3.43,2.19c0.14,0,0.28,0,0.42-0.02C130.39,117.94,132.22,115.55,132.23,111.76z"/>
<path class="st1" d="M119.87,104.88c0.84,0,1.53-0.5,2.06-0.87c0.19-0.14,0.39-0.28,0.52-0.34c0.27-0.13,0.53-0.26,0.8-0.39
	c2.3-1.14,3.81-1.78,5.7-0.55c2.01,1.29,3.19-0.42,3.63-1.06c0.11-0.16,0.21-0.31,0.32-0.43c0.17-0.19,0.35-0.52,0.27-1.04
	c-0.1-0.68-0.74-1.95-1.51-2.4c-1.07-0.63-2.23-1.06-3-1.35c-0.22-0.08-0.4-0.15-0.54-0.21l-0.18-0.07l-0.2,0
	c-3.26-0.05-6.87,1.3-8.46,3.1c-0.12,0.13-0.34,0.29-0.55,0.45c-0.71,0.52-2.36,1.72-0.97,3.84c0.49,0.74,1.07,1.18,1.73,1.3
	C119.62,104.87,119.74,104.88,119.87,104.88z"/>
<path class="st1" d="M96.5,119.77l0.06-0.23v0c0.02-0.08,0.06-0.18,0.1-0.27c0.17-0.45,0.43-1.13-0.08-1.68l-0.08-0.09
	c-1.21-1.3-2.46-2.65-3.84-3.84c-0.53-0.46-1.1-0.66-1.68-0.59c-0.98,0.11-1.59,0.95-2,1.5l-0.1,0.13c-0.57,0.76-0.33,2.26-0.2,2.56
	l0.24,0.55l0.57,0.07c0.63,0.08,1.07,0.24,1.19,0.44c0.25,0.42-0.28,1.76-0.56,2.48l-0.15,0.39l0.17,0.38
	c0.14,0.31,0.27,0.64,0.4,0.99c0.38,0.97,0.82,2.08,1.49,3.06c0.48,0.7,1.58,1.08,2.53,1.08c0.35,0,0.68-0.05,0.95-0.16
	c0.35-0.14,1.52-0.69,1.79-1.86c0.11-0.48,0.1-1.23-0.6-2.02C95.99,121.87,96.14,121.13,96.5,119.77z"/>
<path class="st2" d="M30.46,88.99c-0.85,2.39-1.72,4.87-3.14,7.12c-0.11,3.08-1,5.98-1.85,8.79c-0.52,1.72-1.07,3.5-1.41,5.27
	c-0.54,2.79-0.93,5.66-1.3,8.44c-0.37,2.74-0.75,5.58-1.28,8.37c-0.49,2.55-0.38,5.2-0.26,8c0.07,1.74,0.15,3.53,0.07,5.3
	c-0.09,1.93,0.24,3.82,0.59,5.82c0.44,2.53,0.9,5.14,0.44,7.86c0,0.02-0.01,0.04-0.01,0.06c1.16,2.84,1.67,5.83,2.17,8.73
	c0.2,1.19,0.41,2.42,0.67,3.61c1.43,6.74,3.53,13.02,6.25,18.64c0.48,0.99,0.95,1.99,1.43,2.99c3.32,6.97,6.76,14.17,11.71,20.29
	c0.09,0.11,0.19,0.23,0.28,0.33c0.16-0.15,0.32-0.32,0.48-0.52c0-0.01,0-0.02,0-0.04c0-0.19,0-0.45,0.08-0.72
	c1.29-4.36,3.23-8.37,5.78-11.92c3.63-5.05,9.1-9.01,15.41-11.17c1.4-0.48,2.79-0.95,4.19-1.42c6.07-2.05,12.35-4.17,18.36-6.7
	c2.38-1,5.17-3.81,6.35-6.4c0.29-0.64,0.4-1.36,0.51-2.12c0.14-0.97,0.29-1.98,0.85-2.92c0.61-1.02,0.54-2.09,0.45-3.32
	c-0.04-0.65-0.09-1.31-0.03-2c0.13-1.56,0.08-3.18,0.03-4.76c-5.61,1.39-10.36-1.26-13.04-7.27c-2.23-5.01-0.22-8.84,2.03-11.92
	c0.52-0.71,0.51-0.93,0.51-0.93c-0.04-0.12-0.45-0.48-0.65-0.65l-0.27-0.24c-0.57-0.49-1.22-1.04-1.66-1.76
	c-0.34-0.55-0.73-1.09-1.15-1.67c-1.18-1.63-2.39-3.32-2.54-5.23c-0.19-2.43-0.94-4.72-2.17-6.6c-2.63-4.03-3.41-8.56-3.86-12.86
	c-0.68-6.52-0.92-13.4,2-19.61c1.22-2.61,0.43-4.16-1.37-5.95c-2.37-2.37-3.98-5.72-4.64-9.69c-1.17-6.97,0.32-13.67,4.33-19.38
	c7.37-10.52,16.47-15.3,27.84-14.65c0.73,0.04,1.47,0.04,2.2,0.05c2.21,0.01,4.5,0.01,6.74,1.06c5.41,2.52,10.69,5.78,12.68,12.56
	c0.11,0.36,0.58,0.96,0.86,1.2c1.54-0.25,2.88,0.2,4.08,0.6c0.85,0.29,1.66,0.56,2.47,0.57c5.01,0.04,9.43,1.8,14.28,3.91
	c7.61,3.32,13.06,7.41,17.15,12.86c3.93,5.23,6.27,11.16,6.97,17.65l0.07,0.68c0.32,2.93,0.69,6.24-0.69,9.51
	c-0.55,1.31-0.77,2.74-1.01,4.27c-0.25,1.59-0.5,3.23-1.16,4.82c-0.15,0.37-0.2,0.86-0.25,1.39c-0.08,0.79-0.16,1.69-0.67,2.43
	c-0.19,0.27-0.23,0.33,0.28,1.02c0.39,0.53,1,1.37,0.65,2.42c1.44,3.91,2.05,7.56,1.87,11.16c-0.05,0.94-0.28,1.84-0.51,2.7
	c-0.18,0.68-0.35,1.32-0.42,1.95c-0.54,4.62-2.29,8.73-3.76,11.79c-0.78,1.63-1.68,2.59-3.78,2.33c-1.08-0.13-1.81-0.5-2.22-1.12
	c-0.41-0.61-0.47-1.37-0.2-2.34c0.09-0.33,0.27-0.57,0.4-0.75c0.04-0.05,0.08-0.1,0.1-0.15c1.98-5.19,4.17-12.12,3.46-19.55
	c-0.23-2.36-0.57-4.63-2.22-6.38c-0.01-0.01-0.02-0.02-0.02-0.02c-0.67,2.1-2.51,4.39-5.03,4.39c-0.12,0-0.23,0-0.35-0.01
	c-3.32-0.28-3.39-4.38-3.39-6.05c-0.26-1.43,0.03-2.78,0.82-3.72c0.73-0.87,1.85-1.34,3.12-1.31c1.45,0.03,2.91,0.76,3.9,1.94
	c0.4,0.47,0.69,1,0.9,1.56c0.26-0.17,0.57-0.33,0.96-0.43c0.1-0.11,0.24-0.37,0.26-0.52c0.04-0.27,0-0.65-0.04-1.03
	c-0.08-0.79-0.18-1.68,0.35-2.37c1.03-1.35,1.11-2.88,0.89-4.49c-0.03,0.54-0.18,1.05-0.39,1.39c-0.38,0.61-1.35,1.03-2.18,1.03
	c-0.27,0-0.53-0.04-0.74-0.14c-2.39-1.03-4.26-1.4-6.23-0.08c-0.22,0.15-0.58,0.28-1.11,0.09c-0.01,0-1.18-0.44-1.42-1.32
	c-0.32-1.15-0.12-2.42,0.54-3.51c0.64-1.05,1.65-1.77,2.76-1.99c0.65-0.13,1.29-0.1,1.97-0.07c0.26,0.01,0.53,0.02,0.82,0.03
	c2.41-0.75,3.88,0.98,4.97,2.25c0.18,0.21,0.36,0.42,0.54,0.62c0.09,0.1,0.16,0.21,0.23,0.32c-0.03-0.13-0.05-0.26-0.08-0.38
	c-0.21-0.94-0.39-1.89-0.57-2.84c-0.25-1.31-0.51-2.67-0.85-3.97c-1.67-6.5-6.09-10.82-10.76-15.39c-0.61-0.6-1.22-1.2-1.83-1.8
	c-0.46-0.46-1.11-0.82-1.79-1.2c-0.26-0.14-0.51-0.28-0.76-0.43c-0.11-0.07-0.2-0.11-0.26-0.14c-0.01,0.03-0.02,0.07-0.03,0.12
	l-0.04,0.2c-0.17,0.73-0.34,1.49-0.66,2.22c-2.18,4.87-5.2,10.39-11.16,14.4c-5.65,3.81-11.5,7.74-18.69,9.08
	c-1.51,0.28-3.09,0.73-3.31,1.92c-0.66,3.56-2.78,6.08-4.82,8.51l-0.73,0.87c-0.19,0.23-0.48,0.57-0.49,0.7c0,0,0.02,0.11,0.24,0.35
	c0.72,0.79,0.51,2.14,0.43,2.54c-0.68,3.31-3.69,4.35-5.3,4.92c-0.44,0.15-1.1,0.33-1.79,0.11c-0.75-0.24-1.3-0.86-1.64-1.84
	c-0.9-2.58-2.6-4.45-5.06-5.57c-1.25-0.57-1.7-0.58-2.55-0.08c-1.37,0.81-3.13,3.49-3.37,5.13c-0.59,4.08,1.05,7.59,2.94,11.12
	c0.4,0.75,0.78,1.18,1.12,1.26c0.36,0.09,0.93-0.13,1.71-0.65c1.88-1.26,3.99-1.51,5.63-0.67c1.56,0.8,2.5,2.44,2.57,4.51
	c0.05,1.36,0.41,2.23,1.34,3.23c3.46,3.72,4.67,7.68,3.52,11.46c-0.68,2.22-0.69,4.39-0.7,6.69c-0.01,1.21-0.01,2.46-0.12,3.72
	c-0.21,2.34-0.45,4.68-0.68,7.01l-0.36,3.6l-0.47,0.25c-0.68,0.36-0.74,0.81-0.73,2c0.01,0.74,0.01,1.58-0.35,2.39
	c-2.07,4.62-5.36,7.84-10.07,9.86c-0.86,0.37-1.71,0.78-2.55,1.18c-0.08,0.04-0.16,0.08-0.24,0.12c0.04,0.07,0.07,0.14,0.11,0.21
	c0.44,0.83,0.87,1.66,1.27,2.51c3.68,7.8,7.34,13.51,15.16,19.62c6.07,4.73,12.1,6.96,18.43,6.83c0.13,0,0.27,0,0.4,0
	c0.93,0,1.87,0.07,2.78,0.13c1.98,0.14,3.86,0.27,5.47-0.25c9.94-3.21,14.21-8.62,14.74-18.69c0.12-2.25-0.27-4.62-0.65-6.91
	c-0.11-0.65-0.22-1.3-0.31-1.95c-0.06-0.43-0.48-1.02-0.74-1.15c-1.12-0.55-2.43-1.13-3.48-1.08c-2.64,0.11-4.74-0.55-6.08-1.93
	c-1.3-1.33-1.86-3.23-1.69-5.65c0.14-1.87,0.11-3.81,0.07-5.68c-0.02-1.08-0.04-2.16-0.02-3.24c0-0.25,0-0.43-0.02-0.53
	c-0.05-0.01-0.14-0.03-0.28-0.04c-8.19-0.46-14.53-4.75-19.14-8.44c-1.48-1.18-1.01-2.4-0.77-3.05c0.07-0.19,0.14-0.37,0.17-0.52
	c0.13-0.8,0.47-1.38,1-1.73c0.8-0.52,1.72-0.29,2.27-0.16l0.17,0.04c1.23,0.29,2.37,1.03,3.22,1.65c5.74,4.15,11.01,5.82,16.55,5.27
	c0.61-0.06,1.21-0.04,1.79-0.02c0.59,0.02,1.15,0.04,1.67-0.03c0.47-0.06,0.98-0.26,1.51-0.47c0.31-0.12,0.62-0.24,0.94-0.35
	c5.01-1.63,7.7-5.81,10.04-9.96l0.12-0.22c0.87-1.55,2.05-3.68,5.18-3c1.58,0.35,2.21,1.14,2.46,1.75c0.23,0.56,0.35,1.48-0.42,2.68
	c-0.29,0.45-0.58,0.91-0.87,1.37c-0.96,1.52-1.96,3.09-3.08,4.56c-0.3,0.39-0.59,0.78-0.88,1.18c-1.38,1.86-2.81,3.78-4.67,5.18
	c-3.06,2.31-6.16,3.74-9.21,4.24c-1.56,0.26-1.8,0.74-1.76,1.8c0.02,0.47,0,0.94-0.02,1.41c-0.03,0.69-0.05,1.35,0.05,1.96
	c0.06,0.38,0.11,0.78,0.16,1.17c0.18,1.4,0.37,2.86,1.03,3.76c0.23,0.31,1.27,0.49,2.02,0.61c0.6,0.1,1.23,0.2,1.8,0.39
	c1.26,0.41,2.52,0.86,3.77,1.31c0.64,0.23,1.28,0.46,1.92,0.69c1.33,0.46,2.71,0.85,4.05,1.23c2.48,0.69,5.03,1.41,7.48,2.65
	c0.79,0.4,1.59,0.74,2.45,1.1c1.59,0.67,3.23,1.37,4.73,2.45c0.26,0.19,0.79,0.25,1.31,0.31c0.1-0.42,0.18-0.82,0.18-1.17
	c-0.03-1.29-0.08-3.24,1.87-4.34c1.17-0.66,1.22-1.18,0.28-3.09c-0.39-0.79-0.65-1.61-0.9-2.41c-0.12-0.39-0.25-0.78-0.39-1.17
	c-0.19-0.54-0.43-1.07-0.66-1.61c-1.05-2.4-2.24-5.11-0.03-8.18c0.05-0.13,0.03-0.61-0.06-0.77c-1.58-2.24-2.05-4.8-2.52-7.29
	c-0.46-2.44-0.89-4.75-2.31-6.68c-0.64-0.87-0.66-2.64-0.02-3.57c0.82-1.21,0.8-2.51,0.77-4.02c-0.01-0.53-0.02-1.06,0.01-1.58
	c0.08-1.68,0.57-2.78,1.5-3.36c0.98-0.61,2.31-0.54,4.07,0.23c4.79,2.08,7.27,6.41,9.07,10.38c0.23,0.51,0.48,1.03,0.72,1.54
	c1.17,2.46,2.37,5,2.65,7.9c0.03,0.35,0.23,0.75,0.34,0.84c0.95,0.52,1.67,1.3,2.37,2.06c1,1.08,1.86,2.02,3.32,2.09
	c1.16,0.05,2.3,0.93,3.04,1.65c6.16,5.96,11.95,11.99,15.13,20.14c0.68,1.73,1.13,3.52,1.57,5.25c0.39,1.55,0.76,3.02,1.29,4.45
	l0.04,0.11c0.1,0.27,0.18,0.53,0.25,0.79c0.7,2.39,0.43,4.38-0.18,6.64c-0.32,1.17-0.72,2.29-1.18,3.37
	c0.55-0.81,1.11-1.62,1.68-2.41c3.08-4.22,5.25-9.01,7.36-13.64c0.9-1.97,1.82-4.02,2.81-5.99c1.31-2.62,2.12-5.69,2.91-8.66
	c0.35-1.3,0.7-2.65,1.1-3.96c0.85-2.8,1.41-5.74,1.95-8.58c0.32-1.66,0.64-3.38,1.03-5.06c0.71-3.13,0.83-6.49,0.95-9.74
	c0.04-1.04,0.08-2.09,0.13-3.12l0.02-0.36c0.07-1.63,0.06-3.31,0.03-5.26c-0.01-1.03-0.02-2.13-0.02-3.34
	c-0.22-1.87-0.21-3.88-0.19-6.01c0.02-3.04,0.04-6.18-0.59-9.37c-0.4-2.03-0.75-4.1-1.09-6.1c-0.56-3.32-1.14-6.75-1.96-10.08
	c-0.84-3.45-2-6.86-3.12-10.16l-0.58-1.72c-1.45-4.3-3.28-8.39-4.89-11.83c-0.73-1.57-1.67-3.1-2.59-4.58
	c-0.53-0.86-1.06-1.73-1.56-2.61c-3.85-6.77-7.86-12.36-12.29-17.1l-0.83-0.89c-3.99-4.28-8.11-8.71-13.01-12.09
	c-1.35-0.93-2.68-1.91-3.96-2.87c-2.66-1.97-5.41-4.01-8.39-5.58l-1.92-1.02c-5.23-2.77-10.63-5.64-16.39-7.27
	c-1.07-0.3-2.13-0.66-3.15-1c-1.84-0.62-3.74-1.25-5.7-1.57c-1.37-0.22-2.75-0.53-4.09-0.83c-1.66-0.37-3.38-0.76-5.07-0.97
	c-0.73-0.09-1.46-0.2-2.19-0.3c-2.39-0.34-4.86-0.69-7.23-0.63c-1.55,0.04-3.12-0.02-4.63-0.08c-3.7-0.14-7.2-0.28-10.68,0.87
	c-1.09,0.36-2.24,0.32-3.36,0.28c-1.06-0.04-2.07-0.07-2.81,0.26c-1.07,0.48-2.17,0.46-3.14,0.44c-1.38-0.03-2.2,0-2.87,0.8
	l-0.26,0.31l-0.41,0.04c-5.46,0.51-10.52,2.78-15.42,4.97c-0.89,0.4-1.77,0.8-2.66,1.18c-7.85,3.42-15.56,8.55-23.59,15.68
	c-3.94,3.5-7.54,7.57-11.01,11.51c-1.02,1.16-2.05,2.32-3.08,3.47c-0.66,0.73-1.18,1.61-1.73,2.55c-0.49,0.83-1,1.69-1.63,2.47
	c-2.74,3.41-4.71,7.38-6.6,11.22c-1.06,2.13-2.15,4.34-3.36,6.45C31.97,84.71,31.2,86.88,30.46,88.99z M97.3,124.69
	c-0.27,1.16-1.44,1.71-1.79,1.86c-0.27,0.11-0.6,0.16-0.95,0.16c-0.95,0-2.05-0.38-2.53-1.08c-0.67-0.99-1.11-2.09-1.49-3.06
	c-0.14-0.35-0.27-0.68-0.4-0.99l-0.17-0.38l0.15-0.39c0.28-0.72,0.81-2.06,0.56-2.48c-0.12-0.2-0.56-0.36-1.19-0.44l-0.57-0.07
	l-0.24-0.55c-0.13-0.3-0.36-1.8,0.2-2.56l0.1-0.13c0.41-0.55,1.02-1.39,2-1.5c0.58-0.07,1.15,0.13,1.68,0.59
	c1.39,1.19,2.63,2.54,3.84,3.84l0.08,0.09c0.51,0.55,0.25,1.23,0.08,1.68c-0.04,0.1-0.08,0.19-0.1,0.27v0l-0.06,0.23
	c-0.36,1.35-0.51,2.1,0.19,2.9C97.4,123.46,97.41,124.21,97.3,124.69z M117.76,103.55c-1.39-2.12,0.26-3.33,0.97-3.84
	c0.21-0.15,0.43-0.31,0.55-0.45c1.59-1.79,5.2-3.15,8.46-3.1l0.2,0l0.18,0.07c0.14,0.06,0.32,0.13,0.54,0.21
	c0.77,0.29,1.93,0.72,3,1.35c0.76,0.45,1.4,1.73,1.51,2.4c0.08,0.52-0.1,0.85-0.27,1.04c-0.11,0.12-0.21,0.27-0.32,0.43
	c-0.44,0.64-1.62,2.36-3.63,1.06c-1.89-1.23-3.4-0.59-5.7,0.55c-0.26,0.13-0.53,0.26-0.8,0.39c-0.13,0.06-0.33,0.2-0.52,0.34
	c-0.53,0.38-1.22,0.87-2.06,0.87c-0.13,0-0.25-0.01-0.39-0.04C118.82,104.72,118.24,104.28,117.76,103.55z M126.92,118.18
	c-1.75,0-3.07-0.83-3.43-2.19c-0.4-1.51-0.92-1.92-2.35-1.9c-0.85,0.03-1.3-0.31-1.54-0.6c-0.58-0.68-0.43-1.57-0.32-2.16l0.04-0.22
	c0.12-0.81,1.19-2.05,2.2-1.91c1.17,0.15,1.62-0.25,2.6-1.7c0.68-1,1.9-1.56,3.24-1.52c1.43,0.05,2.73,0.77,3.39,1.88
	c0.63,1.07,1,2.25,1.25,3.03c0.07,0.22,0.12,0.4,0.17,0.52l0.07,0.17l0,0.19c-0.01,3.79-1.84,6.18-4.9,6.4
	C127.19,118.18,127.05,118.18,126.92,118.18z M150.31,140.83c-0.13,0.27-0.29,0.53-0.45,0.79c-0.22,0.37-0.44,0.71-0.48,0.98
	c-0.61,4.12-4.1,5.4-6.65,6.32c-0.73,0.27-1.45,0.38-2.15,0.38c-2.77,0-5.21-1.77-6.65-2.82c-1.8-1.31-3.14-3.18-4.43-4.99
	c-0.34-0.48-0.68-0.96-1.03-1.42c-0.52-0.69-0.58-1.6-0.16-2.44c0.45-0.92,1.35-1.51,2.29-1.52c2.02-0.02,4.04-0.02,6.06-0.01l2.4,0
	c0.85,0,1.7-0.01,2.55-0.01c1.94-0.01,3.95-0.03,5.93,0.03c1.49,0.05,2.5,0.5,3.01,1.34C151.06,138.31,150.98,139.44,150.31,140.83z
	 M149.4,131.65c-1.1,0.52-2.37,0.48-2.98,0.46c-0.08,0-0.14-0.01-0.19,0c-0.75,0-1.32,0.03-1.82,0.06
	c-0.38,0.02-0.73,0.04-1.06,0.04c-0.56,0-1.05-0.05-1.53-0.23c-1.02-0.38-2.44-1.56-2.47-2.79c-0.03-1.19,1.29-2.58,2.4-2.94
	c0.75-0.24,1.54-0.19,2.23-0.15c0.49,0.03,0.96,0.06,1.34-0.02c0.57-0.11,1.17-0.4,1.6-0.75c-0.08-0.24-0.23-0.61-0.47-1.11
	c-0.62-1.31-1.06-2.69-1.48-4.01c-0.47-1.47-0.91-2.85-1.58-4.16c-0.73-1.44-0.29-3.39-0.07-4.16c0.3-1.04,1.47-2.54,2.7-2.61
	c0.79-0.04,1.74,0.56,2.29,1.09c0.53,0.51,0.8,1.03,0.79,1.53c-0.05,2.28,0.85,4.27,1.8,6.38c0.63,1.41,1.29,2.86,1.66,4.43
	C153.36,125.99,152.38,130.24,149.4,131.65z"/>
<path class="st2" d="M176.47,236.13l-0.28,2.13c0,0.39,0,0.89,0.02,1.27c0.36-0.18,0.82-0.45,1.1-0.61
	c2.84-1.64,5.25-3.21,7.36-4.79c2.69-2.02,5.53-4.23,8-6.73c0.65-0.66,0.9-2.1,1.11-3.36l0.07-0.43c0.58-3.37,2.41-6.02,4.18-8.57
	c0.46-0.67,0.93-1.34,1.36-2.02c2.12-3.3,4.2-7.01,6.54-11.66l0.19-0.38c0.47-0.92,1.11-2.17,0.95-2.84
	c-0.88-3.58-2.06-7.23-3.51-10.84c-2.33-5.8-6.17-11.24-11.73-16.64c-0.49-0.48-1.03-0.91-1.6-1.35c-0.06,0.82-0.09,1.6-0.01,2.35
	c0.1,0.93,0.41,1.8,0.59,2.06c2.44,0.73,3.6,2.59,4.63,4.23c0.57,0.92,1.11,1.78,1.83,2.43c2.95,2.65,3.83,6.37,4.68,9.97l0.14,0.59
	c0.14,0.58,0.38,1.58-0.22,2.35c-0.25,0.32-0.73,0.7-1.63,0.71c-0.12,0-0.25,0.02-0.37,0.03c-0.71,0.07-2.38,0.24-2.79-2.03
	c-0.11-0.64-0.54-1.31-1-2.02c-0.28-0.44-0.58-0.9-0.82-1.39c-2.65-5.36-5.63-7.97-9.96-8.74l-0.38-0.07l-0.24-0.31
	c-0.44-0.58-0.44-0.58-1.27,0.03c-0.27,0.2-0.58,0.42-0.92,0.59c7.17,1.24,10.29,6.77,12.88,12.35c0.46,0.98,0.69,1.8,0.74,2.57
	c0.01,0.1,0.02,0.21,0.04,0.32c0.08,0.54,0.21,1.35-0.32,1.99c-0.33,0.41-0.82,0.63-1.46,0.66c-0.11,0.01-0.22,0.02-0.34,0.04
	c-0.67,0.09-2.24,0.3-2.91-1.78c-1.24-3.85-4.13-6.74-6.79-9.07c-0.67-0.58-1.52-1.12-2.53-1.61c-1.93-0.93-3.58-0.81-4.54,0.32
	c-0.05,0.06-0.09,0.12-0.12,0.16c0.01,0,0.02,0,0.03,0.01c6.57,1.22,9.44,6.21,12.21,11.03l0.46,0.8c1.08,1.87-0.52,3.02-1.21,3.51
	l-0.19,0.14c-0.75,0.55-2.33,0.37-2.96-0.34l-0.48-0.53c-0.95-1.04-2.03-2.22-2.49-3.63c-0.54-1.64-1.77-2.66-2.98-3.57
	c-1.12-0.84-2.24-1.58-3.6-1.44c-1.24,0.12-1.61,0.25-1.82,2.31c-0.05,0.54,0.03,0.7,0.03,0.7c0.06,0.01,0.43,0,0.68,0
	c0.28,0,0.61,0,0.94,0.04c0.13,0.02,0.31,0,0.51-0.02c0.68-0.06,1.81-0.17,2.74,1.13c3.74,5.22,4.01,9.69,0.9,14.5
	c-2.19,3.39-3.5,6.28-4.24,9.38c-0.48,2.01-0.72,3.46,0.29,5.1c1.08,1.75,1.49,3.73,1.19,5.71
	C176.92,232.63,176.69,234.39,176.47,236.13z"/>
<path class="st2" d="M78.28,216.54c-0.03-1.01-0.03-2.05-0.03-3.09c0-1.54,0-3.14-0.11-4.69c-0.12-1.69-0.36-3.16-0.74-4.51
	c-1.26-4.48-3-8.91-5.32-13.54c-0.26-0.52-0.68-0.79-1.19-0.79c-0.26,0-0.54,0.07-0.84,0.21l-0.74,0.35
	c-1.79,0.84-3.64,1.72-5.3,2.77c-5.81,3.66-9.22,7.84-10.74,13.14c-0.15,0.53-0.29,1.08-0.42,1.64c-0.44,1.83-0.9,3.73-2.06,5.18
	c-0.77,0.96-0.52,1.45-0.01,2.42c0.24,0.46,0.51,0.98,0.62,1.58c0.03,0.17,0.54,0.6,0.81,0.82c0.32,0.27,0.65,0.54,0.93,0.87
	c3.05,3.53,6.76,6.48,10.35,9.34c2.13,1.7,4.34,3.45,6.4,5.32c0.57,0.52,1.33,0.9,2.14,1.31c0.89,0.45,1.81,0.91,2.58,1.61
	c0.15,0.13,0.25,0.2,0.31,0.22c0.06-0.07,0.12-0.21,0.14-0.3c0.38-1.64,0.91-3.26,1.42-4.82c1.05-3.19,2.05-6.21,1.83-9.5
	c-0.03-0.47-0.05-0.94-0.06-1.42c-0.01-0.81,0-1.63,0.02-2.44C78.27,217.66,78.28,217.1,78.28,216.54z"/>
<path class="st2" d="M176.28,204c-0.01,0-0.05-0.11-0.25-0.32c-0.41-0.42-0.68-0.9-0.92-1.31c-0.45-0.78-0.75-1.29-1.71-1.49
	c-4.1-0.84-4.94-2.87-5.21-6.84l-0.02-0.27c-0.01-0.21-0.03-0.6-0.08-0.82c-1.82-1.03-3.72-1.99-5.73-3.01
	c-0.36-0.18-0.73-0.37-1.1-0.56c-0.03,0.12-0.06,0.22-0.06,0.27c1.43,3.94,2.31,8.14,3.16,12.2c0.19,0.9,0.38,1.8,0.57,2.69
	c0.97,4.5,2.22,9.26,4.7,13.77c0.28-0.75,0.54-1.51,0.8-2.26c0.76-2.21,1.54-4.49,2.9-6.57c0.76-1.16,1.4-2.51,1.86-3.91
	c0.16-0.47,0.47-0.82,0.74-1.12C176.05,204.32,176.25,204.1,176.28,204z"/>
<path class="st2" d="M89.84,65.7c0.67-0.66,1.34-1.31,1.99-1.98c5.13-5.23,11.68-8.56,20.59-10.48c-3.41,0.26-6.67,1.06-9.86,2.41
	c-5.77,2.44-10.95,6.43-15.84,12.18c-1.69,2-2.89,3.83-3.66,5.63C84.95,70.51,87.43,68.07,89.84,65.7z"/>
<path class="st2" d="M89.19,144.99c0.58,0.98,1.57,1.96,2.84,2.86c0.27,0.19,0.83,0.23,1.38,0.27c0.34,0.03,0.68,0.06,1.01,0.11
	c1.29,0.29,2.18-0.13,3.35-1.55c2.02-2.45,1.99-4.8-0.08-7.21c-0.03-0.03-0.12-0.06-0.22-0.1c0,0,0,0.01,0,0.01
	c1.18,1.95,0.78,3.76,0.38,5.52l-0.12,0.54c-0.65,3.02-2.87,2.76-4.2,2.61l-0.11-0.01c-1.09-0.12-1.96-0.56-2.51-1.27
	c-0.51-0.65-0.72-1.49-0.6-2.43c0.06-0.52,0.02-1.09-0.03-1.69c-0.06-0.74-0.13-1.58,0.03-2.43
	C89.34,141.83,88.75,144.25,89.19,144.99z"/>
<path class="st2" d="M174.85,157.02c0.13,0.22,0.3,0.53,0.33,0.93c0.2,2.83,0.88,3.78,1.41,4.07c0.52,0.29,1.1-0.04,2.21-0.79
	c0.5-0.34,1-0.68,1.56-0.93l-0.02-0.06c-0.98-2.29-1.91-4.47-2.86-6.61c-0.03,0.01-0.06,0.02-0.09,0.03
	c-0.52,0.19-1.08,0.39-1.58,0.65c-0.7,0.36-1.43,0.73-1.55,0.91c-0.02,0.16,0.25,0.9,0.5,1.61
	C174.77,156.91,174.81,156.97,174.85,157.02z"/>
<path class="st2" d="M141.47,142.09c-0.21-0.04-0.48-0.03-0.77-0.01c-0.17,0.01-0.34,0.02-0.51,0.02l-0.82,0
	c-0.28,0-0.57-0.01-0.84,0c0.13,0.08,0.25,0.17,0.37,0.25c1.25,0.84,1.75,1.09,2.52,0.51v0c0.41-0.31,0.9-0.41,1.34-0.5
	c0.04-0.01,0.09-0.02,0.14-0.03c-0.23-0.04-0.5-0.08-0.69-0.11C141.96,142.17,141.7,142.13,141.47,142.09z"/>
</svg>
